<?xml version="1.0" standalone="no"?>
<!DOCTYPE svg PUBLIC "-//W3C//DTD SVG 20010904//EN"
 "http://www.w3.org/TR/2001/REC-SVG-20010904/DTD/svg10.dtd">
<svg version="1.0" xmlns="http://www.w3.org/2000/svg"
 width="512.000000pt" height="512.000000pt" viewBox="0 0 512.000000 512.000000"
 preserveAspectRatio="xMidYMid meet">
<g transform="translate(0.000000,512.000000) scale(0.100000,-0.100000)"
fill="#000000" stroke="none">
<path d="M1560 4886 c-137 -39 -245 -138 -301 -277 -10 -25 -15 -116 -19 -359
l-5 -325 -450 -5 c-444 -5 -451 -5 -508 -29 -111 -44 -200 -137 -249 -259
l-23 -57 -3 -969 c-2 -581 1 -996 7 -1037 26 -190 170 -339 357 -369 33 -6
202 -10 376 -10 l318 0 2 -482 3 -481 436 480 436 480 784 7 c502 5 800 11
829 18 108 26 227 114 272 202 45 87 51 118 57 287 l6 167 305 -336 305 -336
3 482 2 482 113 0 c61 0 139 7 172 14 146 35 257 137 314 291 13 34 16 182 18
1029 2 648 0 1008 -7 1045 -28 152 -134 275 -289 335 l-56 21 -1580 2 c-1249
1 -1589 -1 -1625 -11z m-473 -2127 c84 -40 153 -148 153 -239 0 -53 -30 -127
-70 -173 -54 -61 -115 -89 -193 -90 -153 -1 -269 112 -269 263 0 159 131 279
287 264 28 -3 69 -14 92 -25z m963 5 c82 -34 160 -150 160 -238 0 -61 -30
-136 -71 -181 -56 -60 -115 -87 -192 -88 -153 -1 -267 111 -267 262 1 195 189
320 370 245z m975 -4 c49 -22 100 -71 128 -124 30 -58 30 -174 0 -231 -28 -54
-100 -119 -149 -136 -64 -22 -144 -16 -208 15 -102 50 -150 134 -144 251 3 59
9 81 33 121 72 116 216 160 340 104z"/>
</g>
</svg>
